<?xml version="1.0" encoding="UTF-8"?>
<svg id="Layer_1" data-name="Layer 1" xmlns="http://www.w3.org/2000/svg" viewBox="0 0 1024 1024">
  <defs>
    <style>
      .cls-1 {
        fill: #303990;
      }

      .cls-2 {
        fill: #2e3a90;
      }
    </style>
  </defs>
  <g id="Layer_11" data-name="Layer 11">
    <g id="Skrift">
      <path class="cls-1" d="M128,507.6c-1.9,5-3.9,10.1-5.8,15.1-.2.5-.4,1.1-.3,1.6.2.6.7,1,1.3,1.3,11.5,7.2,27.5,10.2,40.9,8.5,9.1-1.2,18.2-5.4,23.6-12.8s6.7-18.2,1.6-25.9c-4.2-6.2-11.5-9.5-18.7-11.5s-14.8-3.3-21.3-6.9c-2.3-1.3-4.8-3.3-4.7-5.9.1-3.2,3.7-5,6.7-5.7,10.5-2.6,22-.9,31.3,4.5,2.7-5.9,5.4-11.9,8.1-17.8-7.9-3.8-16.4-6.2-25.1-7.1-7.9-.8-16-.3-23.4,2.4s-14.1,7.9-17.7,14.9-3.8,15.9.3,22.7c3.8,6.1,10.5,9.9,17.4,12.1s14.1,3.2,20.9,5.5c1.7.6,3.4,1.2,4.8,2.4s2.3,3,2,4.8c-.4,2.4-2.8,4-5.1,4.8-6,2.2-12.8,1.9-19,.2s-12-4.5-17.7-7.5v.3h-.1Z"/>
      <path class="cls-1" d="M203,534.6c0,.3,4.3,0,6.8,0h14.1c.1-15.1.2-30.6.3-45.7,6.4,11.2,12.9,22.3,19.3,33.5.5.8.9,2.2,1.8,2.2h10.1c.8-.9,1.4-1.6,1.7-2.2,6.6-11.5,13.4-23.4,20.3-35,.1,15.7.2,31.5.3,47.2h21.1v-85.9c-5.6,0-11.2-.2-16.8-.3-1.1,0-2.3,0-3.3.6-.9.6-1.7,1.3-2.3,2.3-8.9,15.4-17,30.9-26.4,45.8-8.7-15.4-17.4-30.8-26.1-46.1-.4-.7-.9-1.5-1.6-2-.9-.6-2-.6-3-.6-5.6,0-11.1.1-16.7.2.2,27-.5,53.9-.1,81.1.1,4.8.1,3.9.1,4.8h.4v.1h0Z"/>
      <rect class="cls-1" x="317" y="448.6" width="22" height="86"/>
      <polygon class="cls-1" points="348 466.6 348 448.6 424 448.6 424 466.6 397 466.6 397 534.6 374.1 534.6 374 466.6 348 466.6"/>
      <polygon class="cls-1" points="431.9 466.6 431.9 448.6 508 448.6 508 466.6 481 466.6 480.9 534.6 458 534.6 457.9 466.6 431.9 466.6"/>
      <polygon class="cls-1" points="612 534.6 635 534.6 635 503.6 674.1 503.6 674.1 485.6 635 485.6 635 466.6 679.1 466.6 679.1 448.5 612 448.5 612 534.6"/>
      <polygon class="cls-1" points="866.74 534.85 934.74 534.85 934.74 517.05 888.94 517.05 888.74 499.95 927.84 499.95 927.74 481.85 888.74 481.85 888.74 466.95 934.74 466.95 934.74 448.25 866.74 448.25 866.74 534.85"/>
      <polygon class="cls-2" points="673.64 534.65 695.64 534.65 703.05 516.85 738.24 516.85 744.94 534.65 769.24 534.65 753.35 497.95 688.74 497.95 673.64 534.65"/>
      <polygon class="cls-2" points="721.44 448.55 731.44 448.55 753.35 497.95 732.62 497.95 721.44 468.97 721.44 448.55"/>
      <polygon class="cls-2" points="688.74 497.95 709.54 448.55 721.44 448.55 721.58 468.62 710.21 497.95 688.74 497.95"/>
      <polygon class="cls-2" points="779.15 534.67 802.28 534.67 802.28 448.53 779.15 448.67 779.15 534.67"/>
      <polygon class="cls-2" points="802.28 510.62 840.68 510.62 837.25 505.87 818.21 492.66 801.77 492.66 802.28 510.62"/>
      <polygon class="cls-2" points="832.3 534.67 815.43 510.62 840.68 510.62 856.15 534.67 832.3 534.67"/>
      <polygon class="cls-2" points="814.05 448.58 815.91 448.6 817.19 448.63 818.48 448.67 820.06 448.74 822.1 448.86 823.47 448.97 825.09 449.14 827.31 449.44 829.75 449.89 831.42 450.28 832.7 450.63 834.18 451.1 835.53 451.6 837.03 452.23 838.71 453.06 840.07 453.83 841.3 454.63 842.78 455.71 844.34 457.02 845.71 458.35 846.95 459.72 847.97 460.98 848.91 462.28 849.94 463.9 850.95 465.75 851.47 466.85 852.03 468.15 852.68 469.96 853.14 471.52 853.49 473.01 853.69 474.02 853.87 475.19 854.04 476.67 854.14 478.18 854.16 479.5 854.13 481.03 853.99 482.84 853.72 484.82 853.23 487.15 852.71 489.01 852.26 490.37 851.92 491.26 851.48 492.31 850.94 493.47 850.1 495.04 849.2 496.56 848.33 497.84 847.69 498.7 847.07 499.47 846.14 500.51 845.28 501.38 844.35 502.21 843.06 503.21 841.7 504.09 840.68 504.65 839.65 505.11 838.68 505.47 837.81 505.74 837.25 505.87 818.21 492.66 818.92 492.63 819.37 492.61 819.84 492.58 820.38 492.53 820.91 492.46 821.27 492.4 821.56 492.34 821.77 492.29 822 492.22 822.26 492.14 822.5 492.06 822.77 491.96 823.04 491.85 823.38 491.7 823.63 491.58 824.06 491.37 824.5 491.13 824.9 490.91 825.28 490.67 825.77 490.33 826.24 489.95 826.71 489.53 827.16 489.09 827.56 488.64 827.99 488.1 828.39 487.54 828.74 486.98 829.04 486.47 829.29 485.98 829.96 484.46 830.47 482.65 830.64 481.57 830.74 480.51 830.77 479.67 830.75 479.09 830.73 478.62 830.68 478.12 830.6 477.44 830.49 476.82 830.35 476.19 830.18 475.58 829.98 474.91 829.69 474.13 829.36 473.34 828.95 472.56 828.74 472.2 828.49 471.81 828.31 471.54 828.23 471.43 828.16 471.32 828.09 471.22 828 471.1 827.88 470.95 827.77 470.81 827.67 470.68 827.54 470.53 827.38 470.35 827.2 470.14 827.02 469.94 826.83 469.76 826.64 469.57 826.41 469.35 826.2 469.16 814.05 448.58"/>
      <polygon class="cls-2" points="802.28 448.53 814.05 448.58 826.2 469.16 825.47 468.56 825.08 468.28 824.63 467.98 824.15 467.7 823.72 467.47 823.08 467.16 822.53 466.92 821.96 466.7 821.38 466.5 820.77 466.32 820.04 466.14 819.31 466 818.71 465.89 817.97 465.78 817.35 465.7 816.6 465.63 816.05 465.6 815.34 465.57 814.68 465.56 814.32 465.55 813.87 465.55 813.45 465.54 811.85 465.51 810.02 465.5 807.96 465.5 806.29 465.52 804.28 465.55 802.47 465.59 802.28 465.59 802.28 448.53"/>
    </g>
    <g id="logo_tekst" data-name="logo + tekst">
      <polygon class="cls-1" points="532.1 448.4 532.1 466.5 594.4 466.5 594.4 448.4 532.1 448.4"/>
    </g>
  </g>
  <g id="Layer_2" data-name="Layer 2">
    <path class="cls-1" d="M562.4,534.3c0-.2.4-.4.6-.5s.6-.2.8-.4h0c0-.7-.2-1.3-.6-1.8s-.4-.4-.6-.6-.6-.3-.6-.6,0-.3.2-.4.3,0,.5,0c0-.7,0-1.6-.4-2.1-.2-.3-.6-.4-1-.5s-.7,0-1.1,0h-.2v-.2c0-.3.4-.5.8-.5h.4c.2,0,.3,0,.3-.2s0-.3-.3-.4c-.5-.3-1-.3-1.5-.7-.2,0-.3-.4-.3-.6s.2-.3.3-.4.3,0,.5,0c.4,0,.7,0,1,.2s.6.3.8.2c.3-.2.4-.4.8-.4s.7,0,1,.2h1.2c.4,0,.7-.5.7-1s-.2-.8,0-1.2c0,0,0-.3.2-.3h.2c.5,0,1.1,0,1.4-.3.2-.2.3-.6.2-.9,0-.5-.4-1.1-.8-1.3-.5-.3-1.1-.2-1.6-.5-.2,0-.3-.2-.4-.4,0-.3,0-.5.3-.4.5,0,.9.3,1.4.4.4,0,.7.3,1.1.4.6.2,1.2,0,1.8,0h.8c.2,0,.4-.2.6-.3h.5c.2,0,.3,0,.4.2.2.2,0,.5,0,.8v.2h-.2c-.3,0-.6.5-.5.8h-.7c0,.5,0,1.1.3,1.6v.3h0c-.2.3-.4.5-.7.5s-.5,0-.7-.3c.2.2.3.6,0,.9h.2c.4-.2.7-.5,1.1-.7.4-.2.9,0,1.4,0,.2.3.2.8,0,1,0,0-.3.2-.4.2-.3.2-.6.4-.8.7.3,0,.5.2.6.5v.8c.2,0,.2-.4.2-.5,0-.5.3-.8.5-1.3,0-.4,0-.7.2-1.1,0-.4.2-.7.4-1,0,0,0-.3.2-.4v-1.8c0-.2,0-.4.2-.6.2-.3.6-.3.8,0s.4.5.4.9v1.4c0,.2,0,.3.2.4.4.7.6,1.6.4,2.4,0,.2,0,.4-.3.6s0,.2-.2.2-.2,0-.3.2c0,0-.2.2-.2.4v.4h.7s.2.2.2.3v.2h.2c.2,0,0-.2,0-.2v-.4c0-.3.3-.5.5-.6,0-.2-.2-.3-.4-.3,0-.6.3-1.2,0-1.8,0-.2-.2-.3-.2-.5-.2-.5,0-1.1,0-1.6s-.3-1-.4-1.5v-.5s-.2-.3-.3-.4c0,0-.3,0-.4.2-.4.3-.8.5-1.3.4-.2,0-.3,0-.4-.3v-.2c0-.5.4-.7.7-.9.4-.3.8-.7,1.2-1.1s.6-.3.8-.5l1-.5c.2,0,.3-.2.5-.3.3-.2.5-.4.8-.6,0,0,.3-.2.5-.2h1.7c.4,0,.7.4,1.1.6s.8.2,1.2.4c.6.3,1.2,1,1.2,1.8s0,.8-.3,1.1c0,.2-.2.3-.3.5-.3.6,0,1.5.4,1.9,0,0,.2.2.2.3v1.3c0,.3.2.5.2.8v2c0,.4.2.8.4,1.2,0,.3.3.5.3.8s0,.4-.2.6-.3.3-.4.4c-.3.3-.9.2-1.2,0v-.5c0-.2,0-.4.2-.5s.3-.4.4-.6v-.5s-.3.6-.4.7c-.3.5-.7.7-1.2.9s-1.1.2-1.4.6-.2.3-.3.4c-.4.6-1,1-1.3,1.6-.4.7-.6,2,.2,2.5s.5.2.7.2c.3,0,.5,0,.8.2.2,0,.3.2.5.4.3.3.7.6,1,1,0,0,.2.2.3.4v.8c-.2.4-.5.6-.8.9s-.7.6-1,.9h-.4c-.5,0-1,0-1.4.2-.4,0-.7.4-1,.6-.3.2-.5.6-.6,1h-.2l-.2-.2c-.2-.3-.3,0-.3.2h0c.2.2.4.3.7.3h1v.8c0,.3-.4.3-.7.3h-.4s.2.5.3.7c.2.4.3.8,0,1.2,0,.4-.5.7-.9.8s-.8,0-1.2,0-.5,0-.7-.2-.4-.3-.6-.5c-.4-.3-.8-.5-1.3-.6s-1-.3-1.2-.7,0-.3,0-.5h0c.3,0,.5,0,.8.2s.5.2.7.2c0-.4-.5-.6-.8-.8s-.6-.4-.8-.7h0c0-.4.3-.5.6-.5h.5s-.2-.3-.3-.4-.2-.3-.3-.4h0v-1.1h-.6c-.3.2-.3.7-.5.9-.3-.3-.7-.4-1.1-.4h-1c-.4,0-.6-.2-1-.4h-.4c-.2.3-.4.5-.7.5-.6,0-1.3,0-1.7-.6,0,0-.2-.2-.2-.4s0-.3.2-.3h.7s.2,0,.2-.2v-.2h0s0,.2-.2.3c0,0,0,.2-.2.2h-.5c-.2-.3-.3-.6-.4-.9,0-.3-.3-.6-.5-.8s-.2-.2-.4-.3-.3,0-.4-.3h0v-.4h0l.2-.2v-.4h0Z"/>
    <path class="cls-1" d="M561.2,545.4c0-.2.4-.3.6-.4.3-.2.5-.3.9-.4h1.4c.3,0,.6.2.8.4.4.2.8.5,1.2.8s0,0,.2.2l.4.4c.3.2.5.5.9.7s.9.4,1.4.2c.3,0,.5-.4.7-.7s.2-.3.3-.5,0-.2,0-.3v-.3c.2.3.4.6.7.8s.4.5.6.8c0,.3.4.5.5.7s.2.3.3.5,0,.4.2.5c0,0,0,.3.3.3s.2.2.3.4,0,.4-.2.5h0c0,.6.3,1.1.2,1.6,0,.2,0,.3-.3.4s-.4,0-.5,0c-.2,0-.3,0-.5-.2h-2.6c-.2.3-.4.5-.6.8s-.6.3-.9.3-.7-.2-1.1-.4-.3-.2-.5-.4c-.4-.5-.9-.9-1.3-1.4-.4-.5-1-.5-1.5-.6-.2,0-.4,0-.6-.3s-.4-.3-.6-.4c-.3,0-.6-.2-.9-.4,0,0-.3-.2-.4-.3s-.3-.3-.2-.4h.2c.2,0,.3,0,.5-.2.3,0,.7,0,1-.2.2,0,.3-.2.4-.4h-.3s-.2,0-.3-.2c-.2,0-.5-.3-.6-.6-.2-.3-.2-.8,0-1.2s0-.2,0-.2h-.3.2v.1Z"/>
    <path class="cls-1" d="M574.3,554.3c.2,0,.3-.3.3-.7,0-.6-.2-1.2-.3-1.8s0-.4,0-.6.2-.2.3-.3c.3-.2.7-.5.8-.9s.2-.9.6-1.2c.2,0,.3-.2.5-.4.3-.3.3-.8,0-1.2,0-.2-.4-.4-.5-.7,0,0,0-.3-.2-.4,0,0-.3-.2-.5-.2h-.6c-.2,0-.3,0-.4-.2s-.2-.2-.2-.4v-.4h-1.3s-.3-.2-.4-.3c0,0-.2-.3-.4-.3h-.2v.4h-.8c-.5.3-.5.7-.2,1.2.4.7.8,1.3,1.1,2.1s.2.6.4.9c.3.6.8,1,.9,1.6,0,.5,0,.9-.2,1.3,0,.5-.2,1.1,0,1.7,0,.4.5.8.9.9s.2,0,.3,0h.1v-.1Z"/>
    <path class="cls-1" d="M576.4,544.7s0-.2.2-.3c0-.2.2-.3.3-.5.2-.2.4-.2.6-.2h.4s.3,0,.4-.2v-.7c0-.2-.2-.3-.2-.5s.2-.2.3-.2c.3,0,.6.2.7.5h.2c.5-.2,1-.3,1.5,0s.9.6,1.2,1c0,0,0,.2.2.4s0,.3,0,.4c0,.2-.3.2-.5.2h-1.6c-.6,0-1.1.2-1.4.6-.2.2-.3.5-.5.7s-.4.5-.6.6c-.3,0-.7,0-1-.3-.2,0-.3-.3-.4-.5s0-.4,0-.6c0,0,0-.2.2-.3v-.2h0v.1Z"/>
    <path class="cls-1" d="M565.5,544.9h0c.2-.2.5-.4.8-.4s.4,0,.5.3v.4c0,.1,0,.2-.2.2h-.3c-.2,0-.4,0-.6-.3l-.2-.2h0Z"/>
    <path class="cls-1" d="M567.6,543.9c.2-.2.5,0,.7,0h0v.7s0,.2-.2.2h-.3s-.2,0-.2-.2v-.7h0Z"/>
    <path class="cls-1" d="M562.9,538.5h.6v.8s0,.2-.2.2h-.4s-.2,0-.2-.2v-.8c0-.1,0-.2.2-.2v.2h0Z"/>
    <path class="cls-1" d="M562.1,520h.2c.3,0,.6.3.8.4h0v.2h0s-.3.2-.5.2h-.5c-.2,0-.3-.3-.3-.5s0-.5.2-.5v.2h.1Z"/>
    <path class="cls-1" d="M540.1,526v-.5s.2,0,.3.2c.4-.7,1.3-1.7,2-.9.2.2.4.6.7.6s.4-.2.5-.3c.5-.4,1.1-.7,1.7-.9.6-.2,1.2-.4,1.8-.6.4,0,.9-.2,1.2.2,0-.4.4-.8.7-.7s.7.4,1,.7.6.6.9,1c0,.2.3.3.3.5s0,.5-.3.5c.2.4,0,.9,0,1.2s-.6.6-.9.8c.6.2,1.2.3,1.9.5-.2-.2-.3-.6-.2-.9s.3-.6.4-.9c.3-.6.3-1.2.2-1.9v-.6c0-.2.2-.4.3-.4.2,0,.3.2.4.4.3.6.7,1.2,1,1.7.2.3.3.7.3,1s-.3.6-.3,1,.2.8.5,1.1c.4.6.9,1.2,1.3,1.8.2.2.3.5.4.8s0,.6-.2.8-.6.2-.7,0c.2,1,0,2-.2,3s-.7,1.9-1.1,2.7c0,0,0,.3-.3.4h-.3c-.2.2,0,.5,0,.7s.3.5.3.7c0,.5-.6.7-1.1.6-.7,0-1.4-.6-1.8-1.2,0,0-.2-.3,0-.4,0-.2.3-.3.5-.4s.4-.3.3-.5c-.2.3-.7.3-1,0s-.6-.5-1-.6-1,0-1.3-.3-.2-.6-.5-.6c0,.4-.5.7-.8.5s-.4-.6-.8-.6-.3.2-.5.3c-.3,0-.6-.2-.6-.5s.2-.6.4-.8c.2,0,.4-.3.4-.5,0-.3-.3-.4-.6-.4h-.7v.7c0,.2-.2.5-.4.5-.3,0-.5-.4-.5-.7v-1c-.2-.7-1-1-1.2-1.7-.2-.6.2-1.4,0-1.9-.2-.3-.5-.4-.7-.6s-.4-.6-.2-.8c0,0,.2,0,.2-.2v-.3c0-.6-.4-1.3-.9-1.6-.2-.2-.5-.3-.7-.5s-.2-.2-.2-.4h.3l-.2.2h0Z"/>
    <path class="cls-1" d="M547.1,539h0s.3,0,.3.2c0,0,0,.3.2.5.2.3.5.3.7.5.4.3.6.7.9,1.1,0,0,.2.2.3.2v-.3s.2-.2.3-.2h.2c.2.2.3.4.4.6h0c0-.2,0-.4.2-.4s.3,0,.4.2.2.3.3.4l.2.2v.3c0,.2-.2.3-.4.3h-.5c-.2,0-.4,0-.5.3,0,0,0,.2-.2.3h-.4s-.3,0-.4-.2c-.8-.6-1.4-1.4-2-2.3-.2-.3-.4-.6-.5-.9v-.9c0-.3,0-.2.2-.2l.2.3h.1Z"/>
    <path class="cls-1" d="M556.9,535.1s.3.3.3.4v1.5c-.3,1.3-1,2.4-1.5,3.6-.4,1-.7,2.1-1,3.1-.2.7-.3,1.5-.8,2,0,.2-.4.3-.5,0v-.2c-.2-.8-.4-1.5-.6-2.3v-.4c0-.2.2-.3.3-.4,0-.2.2-.4.3-.6s.3-.3.5-.2v-.2h-.2s-.2-.2-.2-.3v-.4c.3-.6.7-1.1,1.2-1.6s.9-1.1,1-1.7c0-.4,0-.7.2-1.1.2-.4.5-.7.8-1s0-.2.2-.2,0-.2.2-.2,0,0,0,0h0v.2h-.2Z"/>
    <path class="cls-1" d="M548.7,484.2h0c0-.8.6-1.3,1.2-1.6s.8-.3,1.2-.4.9-.2,1.3-.2.6.2.7.5v.7c0,.1-.2.2-.3.2h-1.1v.5c0,.3,0,.7-.2,1s-.5.5-.8.6h-.6c-.3-.2-.3-.6-.6-.7-.2,0-.3,0-.5-.2-.2,0-.2-.3-.3-.5h0v.1Z"/>
    <path class="cls-1" d="M547.3,468.2h0c-.6,1.5-2.6,2.1-2.8,3.7,0,.8.4,1.5.7,2.3,1.6,3.8,0,8.2-1.9,12-.2.4-.4.9-.8,1-1,.4-1.8-1.4-2.9-1.3,2.3,2.1,3.5,5.6,2.9,8.8-1-.3-2.1-.3-3.1.1.9-.1,1.9,0,2.7.4s.8.5.8.9c.2,1-1.5,1.5-1.5,2.5.2-.6,1-.6,1.5-.3s.8.9,1.4,1.1c1.2.6,2.7-.6,4-.4s2.2,1.6,2.2,3-.6,2.7-1.3,3.9-1.5,2.3-2,3.6c-.6-.6-.9-1.5-.9-2.5-.7.8-1.1,1.9-1.1,3-.6-.2-1-1.1-.7-1.8-.8.4-1.9-.2-1.9-1.2.7.2,1.7,0,1.6-.7,0-.7-1.1-.5-1.6,0-1.9,2.1-.7,5.7-1.3,8.6,0,.4-.2.8-.5,1s-.6.2-1,.2h-3.7c1.4-.3,2.7,1.7,1.9,3.1-.6,1-1.8,1.2-2.9,1.1s-2.1-.6-3.2-.5c1.3.5,2.5,1.4,3.4,2.5-.7,1.4-2.2,2.4-3.7,2.3,0,.4,0,.7-.3,1,.6-.5,1.4.2,1.5,1s-.4,1.5-.9,2c.6.3.9,1.1.6,1.8s-1,1.1-1.6.9c0,.6,1,0,1.6,0s1.1,1.2.6,1.8-1.3.8-2.1.8c.4,1.1,0,2.6-1.1,3.2,1.7,0,3.4,1.3,3.9,3,.2.7,0,1.8-.7,1.8s-.7-.4-1.1-.6c-.9-.5-2.1.4-2,1.5-2,.4-3.9-.8-5.8-1.7s-4-1.8-5.8-.9c.2-3.8.3-7.7.5-11.5,0-.5,0-1.1-.2-1.5-.4-.7-1.2-.8-1.9-1.1-1.4-.6-2.5-1.9-2.8-3.5,0,1.1,0,2.1.2,3.2-1-1.3-2.3-2.2-3.8-2.6,1.2-.9,1.5-2.7,1.8-4.3s.8-3.4,2.1-4c.4-.2,1-.3,1.2-.7.7-1.2-1.7-2.7-.7-3.7-.5-.6-1.2-1.1-1.9-1.3,0,1.8.4,4.1-.3,5.1-1.5-5-.5-10.6.4-15.8.3-1.5.6-3.1,1.5-4.2.3,1.9,2.1,3.3,3.8,3.2-.8-1.7-1.8-3.3-3-4.7,0,.7-.6,1.3-1.2,1.2,0,0,.9-3,1-3.3.4-1.2,1-2.3,1.6-3.3s1.3-2,2-2.8,1.4-.9,2.3-1.1c3.6-1,8.3.4,11.2-2.6,2.3-2.4,2.6-6.9,5.5-8.3,1.4-.7,3-.5,4.3-1.3.8-.5,1.4-1.4,2.2-2s1.8-1.1,2.6-.7l.5-.3h0v-.1Z"/>
    <path class="cls-1" d="M516.3,535.7h0v1.7s-.2,0-.3.2c-.3,0-.5.4-.6.8s0,.7.2,1,.4.5.7.7c0,0,.2,0,.3.2s0,.2,0,.3v.3c-.2.3-.5.5-.7.7h0c0-.4,0-.6-.2-.8l-.3-.3c-.2,0-.3,0-.5.3-.2,0-.4.3-.6.2-.2,0-.4-.3-.5-.5-.2-.6,0-1.2.2-1.7s.6-1,.8-1.5c.2-.4.4-.8.6-1.2.2-.3.5-.4.9-.4h0Z"/>
    <path class="cls-1" d="M515.5,531.4h.3v.7l-.2.2h-.6v-.7h0s.2-.2.4-.2,0,0,0,0h.1Z"/>
    <path class="cls-1" d="M517.7,529.7h.6v.5c0,.2-.2.3-.4.3h-.4l-.2-.2h0v-.4s.2,0,.3-.2h.1Z"/>
    <path class="cls-1" d="M515.6,525.1s.3.2.4.3h0v.3h0s.2.3.4.4h0v.6h0v.5c.2.3.2.7.2,1.1h0l-.2.2h-.3c-.2,0-.4-.4-.4-.6s0-.5-.2-.8c0-.3-.3-.6-.4-1v-1.2s.2-.2.3-.2,0,0,0,0v.3h.2v.1Z"/>
    <path class="cls-1" d="M533.8,535.8s0-.2.2-.3c.4-.3,1-.5,1.5-.3.4.2.6.6,1,.8,0,0,.3,0,.4.2s.2.2.2.3c.3,0,.5.3.7.5s.4.5.6.7c.3.4.6.7.9,1.1s.4.9.3,1.4c0,.5-.6.8-1,.9h-1.2c-.2,0-.4-.4-.5-.7v-.2h1.1v-.3h-2.1v-.2c-.2-.3-.3-.6-.3-1h0c.3,0,.5.2.7.3v-.5c0-.2-.3-.4-.5-.6-.3-.2-.7-.4-1.1-.5s-.7-.4-.9-.7c0-.2-.2-.3,0-.5v-.2h.2l-.2-.2h0Z"/>
    <path class="cls-1" d="M545.1,512.3h.4c0,.5.2,1,.5,1.4s.5.8.6,1.3c.2.7,0,1.4,0,2.2v.8c0,.2-.2.3-.3.4l-.2.2h-.2c-.3-.3-.5-.7-.7-1,0-.2-.2-.5-.2-.7,0-.5.5-.9.6-1.4v-.6c0-.5-.6-.8-.7-1.3v-1c0-.2.1-.3.3-.4.3,0,0,0,0,0h0l-.1.1Z"/>
    <path class="cls-1" d="M517.2,531.9h.3c.2,0,.5.3.6.5h0v.3c0,.6-.2,1.2-.3,1.9v.2h0c-.2.3-.4.4-.7.5h-.4c-.3-.3-.4-.9-.4-1.3s0-.9.2-1.4v-.5s.2-.2.4-.2h.3Z"/>
    <path class="cls-1" d="M512.9,502.3v-.4c0-.4.2-.7.4-1h0c0-.1.2-.1.2-.1.3,0,.6-.3.7-.7v-.5s0-.1.2-.2c.2-.2.3-.4.4-.7s.3-.5.5-.5h.3s.2-.1.3-.2c.4-.3.7-.6,1.1-.9s.3-.3.4-.3h.6v1.3c0,.3,0,.6-.3.8,0,.1-.2.2-.3.2-.2,0-.4-.1-.5,0,0,.4.2.8.2,1.2v.8c0,.2-.2.3-.2.5-.4.6-.8,1.2-1.2,1.7-.2.2-.4.5-.7.5-.5.1-.9-.3-1.4-.3,0-.3-.2-.7-.3-1h-.6v-.3h.2v.1Z"/>
    <path class="cls-1" d="M519.2,499.1h.2c.2.1.4.3.5.4s.2.3.3.4c0,.2,0,.5-.3.6h-1.1c-.2,0-.3-.2-.4-.4v-.2c0-.1,0-.3.2-.4s.3-.3.5-.4.2,0,.3,0h-.2Z"/>
    <path class="cls-1" d="M520.5,498.4h0v.7s0,.1-.2,0h0c0-.2-.2-.4-.2-.6h0c0-.1.2-.3.3-.2h.1v.1Z"/>
  </g>
  <g id="Layer_3" data-name="Layer 3">
    <path class="cls-1" d="M552.4,489.6h37.9c1.5,0,.8,0,.8,0v-13.3h-35.6v4.7h1v2.3h-1v1.6h-1v1.6h-1v1.6h-1v1.6h-.1v-.1Z"/>
    <polygon class="cls-1" points="563.9 512 563.9 499.4 593.6 499.4 601.9 534.5 586.5 534.5 586.5 533 586.5 532.1 586.5 532 586.5 531.2 586.5 529.6 586.5 529.6 586.5 529.6 586.5 529.6 586.5 528.2 586.5 528.2 586.5 528.2 586.5 525.9 586.5 521.4 586.5 521.4 586.5 514.5 586.5 512 585.8 512 584.8 512 583.8 512 582.3 512 563.9 512"/>
    <polygon class="cls-1" points="553.2 488 556.2 483.3 556.2 484.9 555.2 486.5 554.2 488 553.2 488"/>
    <polygon class="cls-1" points="556.2 481 556.2 483.3 557.2 483.3 557.2 481 556.2 481"/>
    <polygon class="cls-1" points="552.4 488 555.5 483.3 556.2 484.9 554.2 488 552.4 488"/>
    <polygon class="cls-1" points="555.5 481 555.5 483.3 556.5 483.3 556.4 481 555.5 481"/>
    <polygon class="cls-1" points="586.5 521.4 586.5 531.2 588 531.2 588.7 530.5 588.7 528.2 587.2 521.4 586.5 521.4"/>
  </g>
</svg>